<svg id="loading" xmlns="http://www.w3.org/2000/svg" width="1947.668" height="143" viewBox="0 0 1947.668 143">
  <path id="Fill_1" data-name="Fill 1" d="M0,.431S94.5,43.355,239.859,42.388C336.718,41.746,425.222-4.945,554.329.431c87.183,3.631,183.027,54.68,280.385,53.946,99.435-.75,203.574-51.948,354.995-53.946s281.908,64.339,402.965,65.932c207.974,2.739,351.552-53.869,355-47.95V143H0Z" transform="translate(0 0)" fill="#b8e4f3" opacity="0.2"/>
  <path id="Fill_3" data-name="Fill 3" d="M0,86.91S69.014,3.676,313.953,6.272C509.037,8.34,548.541,61.981,662.015,62.1c93.462.094,200.116-58.117,297.427-55.827,96.417,2.27,183.813,61.572,278.236,62.029C1329.665,68.744,1407.212,2.2,1554.3.07s190.513,44.9,254.636,62.029c99.726,26.628,138.736,31.013,138.736,31.013V129H0Z" transform="translate(0 14)" fill="#9381e5" opacity="0.4"/>
  <path id="Fill_5" data-name="Fill 5" d="M1947.668,31.276c-95.945,0-110.1,57.932-412.563,54.478-82.031-.935-255.7-82.94-345.4-85.607C1086.139-2.938,979.075,62.759,873.09,62.405,764.805,62.043,667.24,3.837,566.07.146,455.131-3.9,340.437,77.568,249.457,70.186,57.568,54.624,0,7.927,0,7.927V123H1947.668Z" transform="translate(0 20)" fill="#00a7e1" opacity="0.3"/>
  <path id="Fill_7" data-name="Fill 7" d="M1947.668,26.868c-11.826,2.3-91.349,5.576-249.458-2.442C1624.345,20.679,1558.8,2.844,1467.944,2.443c-90.47-.4-206.956,20.107-307.02,19.54C1017.01,21.169,962.356,2.537,863.5,2.443,768.3,2.352,693.661,16.2,604.447,17.1,471.009,18.447,354.813.1,249.457,0,71.643-.166,0,24.426,0,24.426V41H1947.668Z" transform="translate(0 102)" fill="#b8e4f3"/>
</svg>
